<svg xmlns="http://www.w3.org/2000/svg" viewBox="0 0 24 24" enable-background="new 0 0 24 24" x="0px" y="0px"><g><path d="M12 15.012c-.348 0-.696-.087-1.013-.261l-9.887-5.393c-.678-.37-1.1-1.08-1.1-1.853 0-.773.422-1.483 1.101-1.853l9.888-5.394c.633-.346 1.39-.346 2.022 0l9.889 5.394c.678.369 1.1 1.08 1.1 1.853 0 .773-.422 1.484-1.101 1.854l-9.889 5.394c-.315.172-.662.259-1.01.259zm0-13.012l-.053.014-9.889 5.394-.058.097.058.098 9.889 5.394h.105l9.89-5.394.058-.098-.058-.097-9.889-5.394-.053-.014zM11.998 23.001c-.329 0-.657-.082-.956-.245l-10.53-5.883c-.482-.27-.655-.879-.385-1.36.269-.483.879-.655 1.361-.386l10.521 5.878 10.504-5.878c.482-.269 1.09-.097 1.36.386.27.481.097 1.091-.386 1.36l-10.52 5.878c-.305.167-.638.25-.969.25zM11.998 19.001c-.329 0-.657-.082-.956-.245l-10.53-5.883c-.482-.27-.655-.878-.385-1.361.269-.482.879-.656 1.361-.385l10.521 5.878 10.504-5.878c.482-.269 1.09-.096 1.36.385.27.482.097 1.091-.386 1.361l-10.52 5.878c-.305.167-.638.25-.969.25z"/></g></svg>