<?xml version="1.0" encoding="utf-8"?>
<!-- Generator: Adobe Illustrator 16.0.3, SVG Export Plug-In . SVG Version: 6.00 Build 0)  -->
<!DOCTYPE svg PUBLIC "-//W3C//DTD SVG 1.1//EN" "http://www.w3.org/Graphics/SVG/1.1/DTD/svg11.dtd">
<svg version="1.1" id="Layer_1" xmlns="http://www.w3.org/2000/svg" xmlns:xlink="http://www.w3.org/1999/xlink" x="0px" y="0px"
	 width="600px" height="600px" viewBox="0 0 600 600" enable-background="new 0 0 600 600" xml:space="preserve">
<g>
	<g>
		<path fill="#949494" d="M90.721,8.221c0,0,1.412-8.171,3.937,56.88c1.135,32.517,1.98,70.041,2,109.898
			c-0.09,39.83,1.715,82.842,1.731,125.554c-0.124,42.746-1.715,85.7-1.708,125.565c-0.115,39.908-1.04,77.491-2.238,110.057
			c-2.66,65.11-3.733,49.996-3.733,49.996s0.454,15.382,1.938-49.586c0.871-32.516,1.367-70.105,1.057-110.075
			c-0.18-39.99,1.199-83.071,1.155-125.957c0.136-42.857-1.475-85.951-1.209-125.881c0.392-39.937-0.017-77.506-0.799-109.981
			C91.503-0.213,90.721,8.221,90.721,8.221z"/>
	</g>
	<g>
		<path fill="#949494" d="M144.856,11.813c0,0,3.29,1.329,11.908,64.636c4.22,31.658,7.963,67.718,9.96,105.517
			c1.885,37.766,4.933,78.198,4.89,118.365c-0.18,40.178-3.131,80.664-5.234,118.535c-2.197,37.894-6.116,74.025-10.514,105.784
			c-8.938,63.505-11.01,66.889-11.01,66.889s1.813-3.312,9.881-66.737c4.134-31.732,7.714-67.849,9.507-105.749
			c1.894-37.907,4.701-78.423,4.748-118.687c0.168-40.244-2.738-80.792-4.416-118.611c-1.591-37.792-4.979-73.809-8.95-105.44
			C147.886,13.079,144.856,11.813,144.856,11.813z"/>
	</g>
	<g>
		<path fill="#949494" d="M119.813,15.861c0,0,2.231-7.988,7.144,55.836c2.363,31.895,4.267,68.494,4.943,107.126
			c0.542,38.611,3.073,80.266,3.066,121.586c-0.134,41.376-2.454,83.027-3.137,121.704c-0.828,38.719-2.878,75.373-5.35,107.354
			c-5.144,63.944-6.664,58.01-6.664,58.01s1.057,6.115,5.18-57.728c2.16-31.951,3.855-68.626,4.257-107.373
			c0.517-38.752,2.629-80.465,2.62-121.93c0.152-41.437-2.168-83.226-2.56-121.902c-0.249-38.663-1.795-75.25-3.849-107.124
			C121.599,7.698,119.813,15.861,119.813,15.861z"/>
	</g>
	<g>
		<path fill="#949494" d="M161.25,13.698c0,0,4.442,1.798,17.346,65.28c6.406,31.751,12.298,67.648,15.978,105.03
			c3.617,37.372,7.003,76.939,6.894,116.259c-0.195,39.351-3.598,78.924-7.5,116.431c-3.963,37.521-10.104,73.571-16.714,105.466
			c-13.329,63.768-16.004,67.477-16.004,67.477s2.55-3.732,15.18-67.426c6.379-31.866,12.208-67.837,15.816-105.357
			c3.69-37.497,6.967-77.163,7.075-116.587c0.188-39.393-3.095-78.984-6.506-116.366c-3.314-37.39-8.886-73.266-15.044-104.996
			C165.568,15.461,161.25,13.698,161.25,13.698z"/>
	</g>
	<g>
		<path fill="#949494" d="M173.896,13.426c0,0,6.718,2.816,28.49,67.547c10.858,32.375,21.274,68.502,28.657,105.672
			c7.356,37.174,11.116,75.337,10.941,113.533c-0.232,38.195-4.443,76.513-12.192,113.869c-7.811,37.36-18.583,73.69-29.742,106.257
			c-22.404,65.123-26.162,69.607-26.162,69.607s3.875-4.532,25.851-69.594c11-32.53,21.56-68.82,29.076-106.181
			c7.554-37.338,11.632-75.714,11.819-113.959c0.23-38.235-3.44-76.405-10.594-113.589c-7.108-37.179-17.292-73.298-28.002-105.625
			C180.695,16.272,173.896,13.426,173.896,13.426z"/>
	</g>
	<g>
		<path fill="#949494" d="M168.119,14.662c0,0,9.063,3.856,39.652,69.53c15.276,32.84,30.142,68.996,41.099,105.735
			c10.957,36.729,15.18,73.329,14.921,110.145c-0.275,36.86-5.304,73.685-16.794,110.626
			c-11.489,36.975-26.839,73.358-42.54,106.479c-31.367,66.212-36.335,71.492-36.335,71.492s5.181-5.247,36.416-71.379
			c15.614-33.094,30.827-69.481,42.185-106.441c11.331-36.978,16.287-73.882,16.529-110.797
			c0.274-36.887-3.84-73.556-14.665-110.301c-10.823-36.753-25.547-72.865-40.762-105.677
			C177.407,18.484,168.119,14.662,168.119,14.662z"/>
	</g>
	<g>
		<path fill="#949494" d="M170.084,13.863c0,0,5.534,2.267,22.705,66.31c8.548,32.019,16.619,67.98,22.092,105.216
			c5.386,37.237,8.977,76.1,8.834,114.825c-0.214,38.771-4.018,77.722-9.758,115.117c-5.803,37.393-14.182,73.5-22.98,105.689
			c-17.692,64.34-20.881,68.434-20.881,68.434s3.199-4.125,20.324-68.421c8.618-32.179,16.706-68.237,22.189-105.632
			c5.511-37.395,9.234-76.404,9.366-115.222c0.212-38.765-3.269-77.645-8.469-114.894c-5.127-37.237-12.931-73.173-21.274-105.167
			C175.593,16.156,170.084,13.863,170.084,13.863z"/>
	</g>
	<g>
		<path fill="#949494" d="M172.972,13.353c0,0,7.896,3.368,34.239,68.731c13.169,32.692,25.912,68.911,35.207,105.974
			c9.269,37.049,13.179,74.499,12.957,112.065c-0.25,37.594-4.815,75.245-14.536,112.498c-9.759,37.28-22.919,73.693-36.436,106.61
			c-27.051,65.818-31.431,70.743-31.431,70.743s4.547-4.929,31.317-70.69c13.4-32.899,26.383-69.333,35.909-106.583
			c9.562-37.254,14.067-74.955,14.282-112.592c0.248-37.636-3.6-75.107-12.699-112.181c-9.075-37.055-21.631-73.261-34.685-105.932
			C181.031,16.728,172.972,13.353,172.972,13.353z"/>
	</g>
	<g>
		<path fill="#949494" d="M160.186,18.3c0,0,10.139,4.325,44.378,69.761c17.161,32.715,33.838,68.438,46.14,104.525
			c12.324,36.054,16.955,71.598,16.66,107.404c-0.311,35.841-5.882,71.635-18.767,107.913
			c-12.884,36.327-30.098,72.316-47.693,105.337c-35.146,66.066-40.727,71.787-40.727,71.787s5.829-5.591,40.949-71.531
			c17.559-32.992,34.666-68.983,47.481-105.348c12.789-36.324,18.343-72.227,18.644-108.167
			c0.301-35.887-4.299-71.512-16.528-107.627c-12.229-36.1-28.811-71.853-45.915-104.529C170.59,22.488,160.186,18.3,160.186,18.3z"
			/>
	</g>
	<g>
		<path fill="#949494" d="M138.386,36.666c0,0,11.996,4.879,51.019,67.283c19.565,31.186,38.325,64.619,51.682,97.712
			c13.365,33.078,19.702,65.543,19.316,98.108c-0.347,32.562-7.571,65.21-21.646,98.573c-14.041,33.393-33.44,67.127-53.559,98.687
			c-40.115,63.17-46.813,69.655-46.813,69.655s6.949-6.132,47.285-69.104c20.136-31.527,39.589-65.296,53.718-98.774
			c14.123-33.471,21.292-66.29,21.673-99.036c0.354-32.738-5.917-65.352-19.347-98.563c-13.445-33.194-32.248-66.63-51.842-97.785
			C150.633,41.207,138.386,36.666,138.386,36.666z"/>
	</g>
	<g>
		<path fill="#949494" d="M150.836,24.664c0,0,11.047,4.646,48.015,69.194c18.509,32.25,36.442,67.181,49.532,102.191
			c13.133,35.005,18.412,69.337,18.065,103.863c-0.321,34.56-6.567,69.125-20.314,104.373
			c-13.746,35.271-32.248,70.532-51.274,103.119c-37.952,65.213-44.023,71.249-44.023,71.249s6.334-5.817,44.377-70.891
			c19.009-32.57,37.492-67.826,51.224-103.151c13.712-35.33,19.935-70.021,20.269-104.718c0.337-34.662-4.932-69.069-18.002-104.15
			c-13.105-35.072-30.996-70.001-49.497-102.234C162.14,29.101,150.836,24.664,150.836,24.664z"/>
	</g>
	<g>
		<path fill="#949494" d="M125.616,45.347c0,0,12.093,13.416,51.285,72.139c19.638,29.322,38.478,60.551,51.993,91.363
			c13.533,30.778,19.711,60.686,19.32,90.717c-0.328,30.046-7.456,60.156-21.682,91.183c-14.21,31.086-33.671,62.671-53.879,92.357
			c-40.266,59.496-47.026,65.928-47.026,65.928s6.958-5.92,47.709-65.226c20.333-29.716,40-61.361,54.252-92.487
			c14.22-31.156,21.541-61.495,21.95-91.755c0.328-30.235-6.085-60.361-19.605-91.241c-13.544-30.868-32.577-62.126-52.36-91.454
			C137.905,58.305,125.616,45.347,125.616,45.347z"/>
	</g>
	<g>
		<path fill="#949494" d="M103.392,97.645c0,0,9.098,10.191,42.539,56.847c16.776,23.248,33.652,48.372,47.293,73.488
			c13.712,25.087,15.382,47.704,15.107,71.045c-0.186,23.368-3.316,46.35-17.479,71.606c-14.084,25.318-31.368,50.694-48.529,74.183
			c-34.169,47.168-38.921,51.919-38.921,51.919s4.826-3.89,39.668-50.732c17.372-23.511,34.994-48.973,49.356-74.458
			c14.308-25.502,17.664-48.776,17.958-72.479c0.187-23.699-1.752-46.622-15.577-71.953c-13.925-25.297-31.076-50.496-48.104-73.751
			C112.569,107.017,103.392,97.645,103.392,97.645z"/>
	</g>
	<g>
		<path fill="#949494" d="M88.072,184.615c0,0,4.968,5.841,24.792,32.344c9.944,13.11,20.289,27.472,29.208,41.896
			c9,14.36,8.46,26.518,8.291,39.35c-0.053,12.854-0.64,25.287-9.854,39.763c-9.145,14.521-19.672,28.97-29.804,42.194
			c-20.155,26.735-22.624,29.591-22.624,29.591s2.335-1.513,23.363-27.74c10.457-13.242,21.442-27.807,31.128-42.645
			c9.589-14.892,10.344-27.738,10.52-41.123c0.063-13.365,0.437-25.957-8.94-40.757c-9.463-14.732-20.251-29.181-30.542-42.32
			C92.906,189.172,88.072,184.615,88.072,184.615z"/>
	</g>
	<g>
		<path fill="#949494" d="M114.25,67.464c0,0,10.691,11.962,47.888,65.591c18.652,26.748,37.012,55.457,51.079,83.988
			c14.147,28.487,17.88,55.147,17.532,82.264c-0.259,27.156-5.27,54.117-19.967,82.841c-14.672,28.771-33.557,57.798-52.672,84.866
			c-38.104,54.258-43.874,59.893-43.874,59.893s5.919-4.964,44.61-58.98c19.301-27.093,38.406-56.159,53.255-85.053
			c14.762-28.881,19.969-56.09,20.323-83.516c0.268-27.423-3.713-54.341-17.896-82.994c-14.236-28.645-32.825-57.434-51.675-84.206
			C125.102,78.769,114.25,67.464,114.25,67.464z"/>
	</g>
	<g>
		<path fill="#949494" d="M94.346,136.579c0,0,7.16,8.153,34.86,45.792c13.899,18.719,28.125,39.064,40.078,59.507
			c12.034,20.406,12.283,38.148,12.06,56.736c-0.116,18.606-1.752,36.775-14.12,57.303c-12.3,20.596-26.839,41.125-41.011,60.025
			c-28.241,37.987-31.867,41.83-31.867,41.83s3.599-2.757,32.603-40.325c14.448-18.902,29.379-39.544,42.095-60.36
			c12.616-20.864,14.438-39.384,14.696-58.422c0.124-19.034-0.31-37.13-12.6-57.866c-12.362-20.666-26.971-41.137-41.154-59.856
			C101.498,143.707,94.346,136.579,94.346,136.579z"/>
	</g>
	<g>
		<path fill="#949494" d="M85.388,243.076c0,0,2.435,3.219,11.926,16.142c4.79,6.327,9.758,13.186,14.137,20.067
			c4.451,6.819,3.882,12.38,3.768,18.352c0.027,5.958,0.02,11.731-4.53,18.586c-4.462,6.952-9.537,13.885-14.415,20.229
			c-9.66,13.043-10.889,14.84-10.889,14.84s0.935-0.188,11.535-12.583c5.252-6.361,10.86-13.435,16.004-20.76
			c5.049-7.385,5.228-13.666,5.351-20.246c-0.027-6.594,0.426-12.687-4.533-20.016c-5.038-7.29-10.575-14.326-15.762-20.631
			C87.539,244.721,85.388,243.076,85.388,243.076z"/>
	</g>
	<g>
		<path fill="#949494" d="M30.105,73.037c0,0,133.321,26.014,158.418,27.16c12.591,0.796,22.261,0.856,26.159,1.903
			c3.973,1.284,2.292,3.723-4.069,10.202c-6.185,6.807-17.063,17.716-32.027,32.042c-14.848,14.516-33.102,37.655-46.912,59.894
			c-27.405,44.781-37.117,89.729-37.117,89.729s9.688-45.076,38.485-87.882c14.29-21.532,33.219-43.626,48.594-57.122
			c15.276-13.65,26.181-24.038,32.302-30.374c5.971-6.66,7.207-9.353,2.799-10.94c-4.496-1.773-14.591-2.555-27.484-3.955
			C163.402,100.434,30.105,73.037,30.105,73.037z"/>
	</g>
	<g>
		<path fill="#949494" d="M30.105,146.744c0,0,138.406,17.932,169.508,19.207c15.587,0.895,29.104,1.397,36.736,2.523
			c7.695,1.344,9.546,3.493,5.234,8.145c-4.204,4.893-14.584,12.333-30.375,21.928c-15.709,9.774-37.759,24.909-56.294,39.282
			c-36.941,29.009-60.365,56.14-60.365,56.14s23.459-27.244,61.467-54.436c18.911-13.713,41.403-27.909,57.362-36.805
			c15.878-9.049,26.383-15.97,30.559-20.387c4.054-4.718,1.876-7.027-6.166-8.615c-8.079-1.81-21.934-2.974-37.714-4.395
			C168.439,166.005,30.105,146.744,30.105,146.744z"/>
	</g>
	<g>
		<path fill="#949494" d="M30.105,220.455c0,0,141.622,8.832,176.332,9.388c17.383,0.49,33.236,0.839,43.181,1.508
			c9.971,0.886,14.004,2.147,10.957,4.577c-2.995,2.657-13.108,6.527-29.449,11.71c-16.307,5.37-40.754,13.203-62.225,20.417
			c-42.914,14.651-74.353,25.914-74.353,25.914s31.386-11.404,74.637-24.463c21.594-6.635,46.227-13.613,62.802-18.097
			c16.545-4.604,26.666-7.953,29.615-10.156c2.898-2.464-1.269-3.829-11.355-4.892c-10.112-1.229-26.065-2.185-43.535-3.2
			C171.753,230.701,30.105,220.455,30.105,220.455z"/>
	</g>
	<g>
		<path fill="#949494" d="M30.105,294.171c0,0,143.533-0.341,179.21-1.226c17.836-0.207,34.205-0.461,44.752-0.711
			c10.54-0.051,15.197-0.051,12.778,0.047c-2.424,0.323-12.104,0.754-29.582,1.221c-17.472,0.615-43.146,1.307-65.5,1.861
			C127.027,296.692,30.105,294.171,30.105,294.171z"/>
	</g>
	<g>
		<path fill="#949494" d="M30.105,367.901c0,0,141.924-9.531,177.007-11.897c17.535-0.943,33.564-1.839,43.765-3.022
			c10.139-0.96,14.405-2.261,11.571-4.523c-2.854-2.037-12.932-5.089-29.609-9.305c-16.727-4.069-41.556-10.503-63.264-16.563
			c-43.484-11.97-75.02-28.622-75.02-28.622s31.619,16.518,74.777,30.064c21.603,6.664,46.201,13.931,62.685,18.873
			c16.492,4.808,26.571,8.391,29.477,10.879c2.961,2.22-1.182,3.374-11.222,4.142c-10.033,0.604-25.958,0.943-43.41,1.404
			C171.995,359.773,30.105,367.901,30.105,367.901z"/>
	</g>
	<g>
		<path fill="#949494" d="M30.105,441.614c0,0,138.585-18.515,170.627-21.806c15.995-1.386,30.108-2.559,38.425-4.354
			c8.283-1.597,10.691-3.875,6.737-8.389c-4.054-4.294-14.557-10.901-30.411-19.605c-15.925-8.53-38.612-22.179-57.822-35.291
			c-38.611-25.974-63.111-58.209-63.111-58.209s24.463,32.138,62.045,59.912c18.857,13.771,41.1,28.277,56.786,37.73
			c15.753,9.26,26.187,16.416,30.257,21.165c4.213,4.444,2.106,6.541-5.848,7.874c-7.898,1.142-21.689,1.667-37.493,2.507
			C168.779,424.464,30.105,441.614,30.105,441.614z"/>
	</g>
	<g>
		<path fill="#949494" d="M30.105,515.349c0,0,133.802-26.811,160.205-30.135c13.161-1.403,23.618-2.204,28.453-4.026
			c4.736-1.627,3.795-4.312-1.973-10.812c-5.899-6.211-16.786-16.315-32.16-29.576c-15.515-13.074-34.809-34.496-49.533-55.347
			c-29.671-41.491-40.539-91.493-40.539-91.493s10.911,49.852,39.208,93.307c14.236,21.562,32.878,44.041,47.888,58.119
			c15.108,13.896,25.888,24.51,31.867,31.192c6.159,6.361,7.545,8.842,3.237,10.13c-4.25,1.08-14.272,1.21-27.141,2.023
			C163.97,489.934,30.105,515.349,30.105,515.349z"/>
	</g>
</g>
<g>
	<path fill="#FFFFFF" d="M94.549,163.775c-25.31,0.059-45.836,20.56-45.854,45.883c0,16.438,24.004,63.155,45.854,91.679
		c21.877-28.531,45.871-75.269,45.871-91.687C140.385,184.328,119.866,163.834,94.549,163.775z M94.549,224.937
		c-8.434,0-15.276-6.862-15.276-15.287c0-8.434,6.833-15.285,15.276-15.285c8.433,0,15.286,6.851,15.286,15.274
		C109.834,218.075,102.991,224.937,94.549,224.937z"/>
	<g>
		<path fill="#FFFFFF" d="M250.256,146.295H225.11c-1.433,0-2.463,1.041-2.463,2.472v2.011c0,1.429,1.029,2.466,2.463,2.466h20.447
			v22.375c-5.731,4.894-12.896,7.475-20.768,7.475c-13.207,0-21.088-7.475-21.088-20.016v-27.58
			c0-12.552,7.769-20.021,20.774-20.021c7.732,0,15.473,2.667,21.551,7.542c0.25,0.127,0.943,0.318,1.235,0.318
			c0.834,0,1.589-0.429,2.024-1.072l0.977-1.378c0.586-0.591,0.861-1.372,0.729-2.145c-0.105-0.737-0.587-1.382-0.997-1.536
			c-7.091-5.595-16.153-8.675-25.521-8.675c-16.964,0-27.939,10.586-27.939,26.976v27.581c0,16.451,11.093,27.088,28.251,27.088
			c10.229,0,19.827-3.804,27.059-10.722c0.56-0.543,0.871-1.324,0.871-2.153v-28.524
			C252.718,147.389,251.645,146.295,250.256,146.295z"/>
		<path fill="#FFFFFF" d="M284.906,182.918c-2,0.299-4.355,0.408-5.786,0.408c-3.59,0-8.344-1.274-8.344-12.173v-59.084
			c0-1.441-1.039-2.467-2.461-2.467h-2.125c-1.43,0-2.461,1.029-2.461,2.467v58.752c0,16.825,9.589,19.348,15.311,19.348
			c1.848,0,4.593-0.231,6.576-0.483c1.253-0.306,2.036-1.348,2.036-2.627v-1.805C287.643,184.083,286.718,182.872,284.906,182.918z"
			/>
		<path fill="#FFFFFF" d="M314.196,129.856c-14.289,0-23.887,8.744-23.887,21.771v16.767c0,13.221,9.374,21.782,23.887,21.782
			c14.521,0,23.895-8.551,23.895-21.782v-16.767C338.091,138.4,328.715,129.856,314.196,129.856z M314.196,183.442
			c-10.391,0-16.84-5.778-16.84-15.047v-16.767c0-9.214,6.451-14.938,16.84-14.938c10.541,0,16.848,5.576,16.848,14.938v16.767
			C331.044,177.799,324.733,183.442,314.196,183.442z"/>
		<path fill="#FFFFFF" d="M369.876,129.856c-5.083,0-10.2,1.245-14.715,3.538v-21.329c0-1.44-1.03-2.466-2.469-2.466h-2.115
			c-1.377,0-2.47,1.072-2.47,2.466v71.823c0,1.108,0.729,2.112,1.688,2.442c6.109,2.459,13.188,3.838,19.995,3.838
			c15.685,0,24.313-8.674,24.313-24.433v-11.348C394.093,138.565,385.501,129.856,369.876,129.856z M369.781,183.442
			c-5.948,0-11.063-1.208-14.62-2.356v-40.139c4.356-2.746,9.508-4.257,14.62-4.257c11.712,0,17.15,5.625,17.15,17.689v11.348
			C386.932,177.823,381.493,183.442,369.781,183.442z"/>
		<path fill="#FFFFFF" d="M425.231,129.856c-7.494,0-14.808,2.092-20.29,5.948c-0.974,0.991-0.573,2.258-0.439,2.703
			c0.05,0.146,0.12,0.284,0.2,0.432l1.192,1.764c0.49,0.502,1.137,0.764,1.81,0.764c0.35,0,1.139-0.208,1.424-0.39
			c4.339-2.751,10.324-4.385,15.996-4.385c9.901,0,14.509,4.647,14.509,14.615v3.247c-5.243-1.056-10.014-1.58-14.509-1.58
			c-14.771,0-23.579,6.88-23.579,18.367c0,11.268,9.482,18.814,23.579,18.814c9.846,0,17.228-2.694,19.656-3.768
			c1.115-0.288,1.903-1.32,1.903-2.503v-32.7C446.684,137.645,438.873,129.856,425.231,129.856z M425.126,159.701
			c5.96,0,11.478,0.95,14.509,1.558v19.742c-4.656,1.616-9.518,2.443-14.509,2.443c-9.882,0-16.512-4.864-16.512-12.093
			C408.614,161.74,417.579,159.701,425.126,159.701z"/>
		<path fill="#FFFFFF" d="M478.682,182.918c-0.021,0-0.031,0-0.044,0c-2.001,0.299-4.361,0.408-5.786,0.408
			c-3.595,0-8.35-1.274-8.35-12.173v-59.084c0-1.441-1.041-2.476-2.462-2.476h-2.132c-1.425,0-2.472,1.035-2.472,2.476v58.752
			c0,16.825,9.608,19.338,15.331,19.338c1.856,0,4.604-0.233,6.582-0.474c1.238-0.306,2.038-1.348,2.038-2.627v-1.805
			C481.379,184.097,480.638,182.918,478.682,182.918z"/>
	</g>
	<g>
		<path fill="#FFFFFF" d="M268.812,228.513h-2.967c-1.173,0-2.114,0.642-2.319,1.359l-28.223,49.714l-28.198-49.842
			c-0.533-0.792-1.385-1.234-2.371-1.234h-2.959c-1.477,0-2.577,1.055-2.577,2.464v74.575c0,1.419,1.1,2.47,2.577,2.47h2.22
			c1.387,0,2.463-1.084,2.463-2.47l-0.089-62.809l25.63,45.355c0.08,0.156,0.178,0.266,0.294,0.391
			c0.603,0.622,1.377,0.958,2.15,0.958h1.697c0.879,0,2.009-0.49,2.446-1.352l25.637-45.355l-0.098,62.812
			c0,1.386,1.074,2.47,2.461,2.47h2.223c1.475,0,2.576-1.056,2.576-2.47v-74.577C271.39,229.571,270.279,228.513,268.812,228.513z"
			/>
		<path fill="#FFFFFF" d="M305.533,248.778c-7.5,0-14.807,2.093-20.299,5.958c-0.967,0.998-0.566,2.257-0.427,2.709
			c0.046,0.151,0.106,0.278,0.196,0.415l1.192,1.765c0.49,0.511,1.146,0.775,1.822,0.775c0.329,0,1.12-0.212,1.404-0.392
			c4.354-2.757,10.345-4.385,16.005-4.385c9.892,0,14.499,4.644,14.499,14.607v3.247c-5.249-1.046-10.021-1.583-14.499-1.583
			c-14.76,0-23.584,6.866-23.584,18.387c0,11.242,9.474,18.803,23.584,18.803c9.849,0,17.22-2.701,19.637-3.767
			c1.121-0.287,1.913-1.313,1.913-2.507v-32.688C326.976,256.56,319.163,248.778,305.533,248.778z M305.426,278.634
			c5.95,0,11.46,0.946,14.499,1.56v19.736c-4.657,1.609-9.516,2.434-14.499,2.434c-9.902,0-16.521-4.85-16.521-12.065
			C288.905,280.646,297.898,278.634,305.426,278.634z"/>
		<path fill="#FFFFFF" d="M359.703,248.778c-6.965,0-13.924,1.372-20.242,4.013c-0.854,0.427-1.442,1.405-1.442,2.387v70.542
			c0,1.384,1.093,2.469,2.47,2.469h2.124c1.433,0,2.464-1.046,2.464-2.469v-20.073c4.373,2.222,9.578,3.446,14.716,3.446
			c15.616,0,24.227-8.728,24.227-24.517v-11.264C384.026,257.488,375.378,248.778,359.703,248.778z M345.085,257.94
			c4.637-1.598,9.676-2.438,14.616-2.438c11.695,0,17.151,5.641,17.151,17.79v11.264c0,12.137-5.464,17.79-17.151,17.79
			c-5.028,0-10.166-1.557-14.616-4.355V257.94z"/>
		<path fill="#FFFFFF" d="M415.547,248.778c-6.965,0-13.928,1.362-20.263,4.013c-0.834,0.427-1.404,1.405-1.404,2.387v70.542
			c0,1.384,1.075,2.469,2.462,2.469h2.122c1.423,0,2.461-1.046,2.461-2.469v-20.073c4.366,2.222,9.585,3.446,14.717,3.446
			c15.616,0,24.218-8.728,24.218-24.517v-11.264C439.859,257.488,431.229,248.778,415.547,248.778z M400.925,257.94
			c4.641-1.598,9.669-2.438,14.622-2.438c11.703,0,17.158,5.641,17.158,17.79v11.264c0,12.137-5.455,17.79-17.158,17.79
			c-5.023,0-10.166-1.557-14.622-4.375V257.94z"/>
		<path fill="#FFFFFF" d="M454.164,249.839h-2.104c-1.421,0-2.472,1.112-2.472,2.561v53.149c0,1.438,1.028,2.47,2.472,2.47h2.104
			c1.431,0,2.472-1.037,2.472-2.47V252.4C456.636,250.951,455.578,249.839,454.164,249.839z"/>
		<path fill="#FFFFFF" d="M453.1,232.435c-2.664,0-4.583,1.927-4.583,4.604c0,2.545,1.972,4.479,4.583,4.479
			c2.612,0,4.595-1.935,4.595-4.479C457.692,234.367,455.757,232.435,453.1,232.435z"/>
		<path fill="#FFFFFF" d="M489.675,248.778c-6.939,0-13.872,1.466-20.323,4.35c-0.835,0.566-1.333,1.443-1.333,2.364v50.071
			c0,1.386,1.078,2.47,2.462,2.47h2.123c1.424,0,2.458-1.051,2.458-2.47v-47.431c4.606-1.601,9.852-2.51,14.623-2.51
			c11.464,0,17.267,5.556,17.267,16.513v33.414c0,1.419,1.103,2.47,2.575,2.47h2.012c1.43,0,2.47-1.037,2.47-2.47v-33.517
			C514.008,257.03,505.358,248.778,489.675,248.778z"/>
		<path fill="#FFFFFF" d="M567.396,252.747c-5.572-2.448-13.213-3.976-19.929-3.976c-15.625,0-24.227,8.118-24.227,22.843v11.451
			c0,14.592,8.832,22.95,24.227,22.95c4.736,0,9.968-1.071,14.511-2.917v4.624c0.044,4.653-1.163,8.261-3.592,10.729
			c-2.584,2.634-6.639,3.963-11.987,3.963c-6.237,0-11.409-2.238-16.723-7.194c-0.355-0.355-1.218-0.732-1.714-0.732
			c-0.781,0-1.509,0.391-1.931,1.051l-1.218,1.726c-0.746,1.546-0.104,2.525,0.362,2.982c6.302,6.057,13.24,9.007,21.21,9.007
			c14.401,0,22.626-7.837,22.626-21.466v-52.61C569.022,253.939,568.275,252.945,567.396,252.747z M547.365,255.612
			c4.405,0,10.227,0.911,14.602,2.248v37.982c-4.354,2.114-9.546,3.326-14.408,3.326c-11.622,0-17.248-5.272-17.248-16.104V271.6
			C530.311,260.854,535.876,255.612,547.365,255.612z"/>
	</g>
	<g>
		<path fill="#FFFFFF" d="M251.102,359.716h-2.124c-1.466,0-2.567,1.053-2.567,2.465v33.083h-39.953v-33.083
			c0-1.376-1.076-2.465-2.463-2.465h-2.22c-1.477,0-2.577,1.053-2.577,2.465v74.564c0,1.424,1.1,2.471,2.577,2.471h2.22
			c1.387,0,2.463-1.086,2.463-2.471v-34.549h39.953v34.549c0,1.424,1.11,2.471,2.567,2.471h2.124c1.464,0,2.577-1.053,2.577-2.471
			v-74.564C253.669,360.769,252.559,359.716,251.102,359.716z"/>
		<path fill="#FFFFFF" d="M309.45,381.028h-2.017c-1.45,0-2.569,1.14-2.569,2.576v47.31c-4.851,1.762-9.631,2.631-14.198,2.631
			c-11.179,0-16.84-5.562-16.84-16.526v-33.418c0-1.455-1.066-2.572-2.463-2.572h-2.125c-1.413,0-2.463,1.121-2.463,2.572v33.418
			c0,14.789,8.708,23.272,23.888,23.272c6.932,0,13.712-1.446,19.308-4.077c1.186-0.265,1.941-1.307,1.941-2.613v-49.976
			C311.913,382.149,310.854,381.028,309.45,381.028z"/>
		<path fill="#FFFFFF" d="M345.182,379.972c-5.101,0-10.221,1.254-14.733,3.544v-21.335c0-1.432-1.021-2.465-2.463-2.465h-2.116
			c-1.373,0-2.461,1.085-2.461,2.465v71.813c0,1.134,0.721,2.132,1.671,2.448c6.115,2.49,13.205,3.851,20.006,3.851
			c15.685,0,24.311-8.663,24.311-24.43v-11.356C369.391,388.691,360.793,379.972,345.182,379.972z M345.076,433.545
			c-5.956,0-11.073-1.187-14.607-2.335v-40.139c4.346-2.759,9.506-4.251,14.607-4.251c11.713-0.021,17.16,5.617,17.16,17.681v11.358
			C362.227,427.934,356.789,433.545,345.076,433.545z"/>
	</g>
</g>
</svg>
