<?xml version="1.0" encoding="utf-8"?>
<!-- Generator: Adobe Illustrator 18.1.1, SVG Export Plug-In . SVG Version: 6.00 Build 0)  -->
<svg version="1.1" id="Calque_1" xmlns="http://www.w3.org/2000/svg" xmlns:xlink="http://www.w3.org/1999/xlink" x="0px" y="0px"
	 viewBox="0 0 23.652 28.909" enable-background="new 0 0 23.652 28.909" xml:space="preserve">
<g>
	<path fill="#FFFFFF" d="M23.652,15.151c0-0.68-0.663-2.963-1.147-3.506c-0.614-0.688-1.335-0.852-2.222-0.852
		c-0.585,0-10.401,1.513-11.632,2.275c-0.589,0.365-0.81,1.199-0.81,2.411c0,1.698,1.12,2.454,1.439,2.454
		c0.717,0,5.701-0.967,7.492-1.301c0.368-0.068,0.511,0.085,0.507,0.233c0,0.436-0.124,0.947-0.318,1.163
		c-0.695,0.776-1.742,1.252-2.646,1.547c-1.413-0.272-2.604,0.93-4.023,0.23c-0.612-0.008-1.494,0.435-1.915-0.249
		c-1.424-0.319-2.946-0.416-4.086-1.361c-0.431-0.408-0.543-0.89-0.543-1.474c0-1.542,2.301-5.502,6.216-9.184
		c0.812-0.764,3.729-2.902,5.013-2.902c0.859,0,1.159,1.915,1.841,2.641c0.169,0.18,0.881,0.199,1.232,0.046
		c0.752-0.327,1.342-0.733,1.342-1.616c0-1.978-0.775-3.585-1.422-4.38C17.561,0.825,15.638,0,14.866,0
		c-1.644,0-2.417,0.977-3.021,1c-2.435,1.494-3.593,2.87-4.09,3.317C7.561,4.492,7.318,4.555,7.318,4.555S7.168,5.097,6.92,5.446
		C6.83,5.501,5.974,6.067,5.974,6.067C4.852,7.156,0,13.22,0,15.488c0,2.128,1.414,5.098,1.935,5.584
		c1.776,1.659,5.072,2.825,8.788,2.825c2.604,0,5.027-1.027,5.754-1.427l0,0c0.177-0.102,0.298-0.088,0.278,0.105
		c-0.024,0.219-0.055,0.521-0.069,0.762c-0.016,0.254-0.137,1.528-0.137,2.39c0,1.509,0.41,2.284,0.825,2.683
		c0.191,0.183,1.462,0.5,2.291,0.5c0.412,0,1.713-0.614,1.713-1.967c0-0.785-0.088-1.839-0.074-2.094
		C21.666,18.115,23.652,16.264,23.652,15.151z"/>
</g>
</svg>
